<svg width="24" height="24" viewBox="0 0 24 24" fill="none" xmlns="http://www.w3.org/2000/svg">
    <mask id="person-gap-small" maskUnits="userSpaceOnUse" x="0" y="0" width="24" height="24">
        <rect width="24" height="24" fill="white"/>
        <circle cx="17" cy="15" r="5.5" fill="black"/>
        <path d="M8 23C8 18 12 16 17 16C22 16 26 18 26 23H8Z" fill="black"/>
    </mask>
    <g mask="url(#person-gap-small)">
        <rect x="2" y="2" width="2" height="20" rx="1" fill="white"/>
        <rect x="2" y="2" width="8" height="3" rx="1.5" fill="white"/>
        <rect x="2" y="8" width="12" height="3" rx="1.5" fill="white"/>
        <rect x="2" y="14" width="6" height="3" rx="1.5" fill="white"/>
    </g>
    <circle cx="17" cy="15" r="4" fill="white"/>
    <path d="M10 22C10 19 13 17 17 17C21 17 24 19 24 22H10Z" fill="white"/>
</svg>
