<svg width="24" height="24" viewBox="0 0 24 24" fill="none" xmlns="http://www.w3.org/2000/svg">
<circle cx="12" cy="12" r="4.75" stroke="white" stroke-width="1.6"/>
<path d="M12 4.25C9.95 6.25 8.9 8.85 8.9 12C8.9 15.15 9.95 17.75 12 19.75" stroke="white" stroke-width="1.4" stroke-linecap="round"/>
<path d="M12 4.25C14.05 6.25 15.1 8.85 15.1 12C15.1 15.15 14.05 17.75 12 19.75" stroke="white" stroke-width="1.4" stroke-linecap="round"/>
<path d="M6.1 9.2H17.9" stroke="white" stroke-width="1.4" stroke-linecap="round"/>
<path d="M6.1 14.8H17.9" stroke="white" stroke-width="1.4" stroke-linecap="round"/>
<path d="M12 5V19" stroke="white" stroke-width="1.4" stroke-linecap="round"/>
<circle cx="12" cy="2.9" r="1.6" fill="white"/>
<circle cx="12" cy="21.1" r="1.6" fill="white"/>
<circle cx="2.9" cy="12" r="1.6" fill="white"/>
<circle cx="21.1" cy="12" r="1.6" fill="white"/>
<circle cx="5.5" cy="5.5" r="1.25" fill="white"/>
<circle cx="18.5" cy="5.5" r="1.25" fill="white"/>
<circle cx="5.5" cy="18.5" r="1.25" fill="white"/>
<circle cx="18.5" cy="18.5" r="1.25" fill="white"/>
</svg>
