<svg width="49" height="26" viewBox="0 0 49 26" fill="none" xmlns="http://www.w3.org/2000/svg">
<path d="M22.05 26H12.25C8.86083 26 5.97228 24.7321 3.58435 22.1962C1.19642 19.6603 0.00163501 16.5949 1.67235e-06 13C-0.00163166 9.40506 1.19315 6.33967 3.58435 3.8038C5.97555 1.26793 8.8641 0 12.25 0H22.05V5.2H12.25C10.2083 5.2 8.47292 5.95833 7.04375 7.475C5.61458 8.99166 4.9 10.8333 4.9 13C4.9 15.1667 5.61458 17.0083 7.04375 18.525C8.47292 20.0417 10.2083 20.8 12.25 20.8H22.05V26ZM14.7 15.6V10.4H34.3V15.6H14.7ZM26.95 26V20.8H36.75C38.7917 20.8 40.5271 20.0417 41.9562 18.525C43.3854 17.0083 44.1 15.1667 44.1 13C44.1 10.8333 43.3854 8.99166 41.9562 7.475C40.5271 5.95833 38.7917 5.2 36.75 5.2H26.95V0H36.75C40.1392 0 43.0285 1.26793 45.4181 3.8038C47.8077 6.33967 49.0016 9.40506 49 13C48.9984 16.5949 47.8036 19.6612 45.4156 22.1988C43.0277 24.7364 40.1392 26.0035 36.75 26H26.95Z" fill="#091057"/>
</svg>
